{"title":"Daredevil S02 Season 2 720p 5.1Ch WebRip ReEnc-DeeJayAhmed","uid":13957340,"size":5962629695,"categoryP":"video","categoryS":"hd___tv_shows","magnet":"?xt=urn:btih:6dcae5df5d96b8a854ba6af3e0c1772d16cf25da&amp;dn=Daredevil+S02+Season+2+720p+5.1Ch+WebRip+ReEnc-DeeJayAhmed&amp;tr=udp%3A%2F%2Ftracker.leechers-paradise.org%3A6969&amp;tr=udp%3A%2F%2Fzer0day.ch%3A1337&amp;tr=udp%3A%2F%2Fopen.demonii.com%3A1337&amp;tr=udp%3A%2F%2Ftracker.coppersurfer.tk%3A6969&amp;tr=udp%3A%2F%2Fexodus.desync.com%3A6969","seeders":0,"leechers":3,"uploader":"DeeJayPirate","files":28,"time":1458554332,"description":"DeeJayAhmed  \nhttps://www.DeeJayAhmed.com\r\r\nKeep Seeding!!=)) \r\nDo Comment On The A/V Quality Considering The Size Of The File..!\r\nHelp Me By Donating Bitcoins : 14i1UCWye2SCjoAHR5u6LDswWgAy55dxAv\r\n\r\nVideo \r\nID : 1 \r\nFormat : AVC \r\nFormat/Info : Advanced Video Codec \r\nFormat profile :    \r\nFormat settings, CABAC : Yes \r\nFormat settings, ReFrames : 8 frames \r\nCodec ID : V_MPEG4/ISO/AVC \r\nDuration : 48mn 5s \r\nBit rate : 948 Kbps \r\nWidth : 1 280 pixels \r\nHeight : 720 pixels \r\nDisplay aspect ratio : 16:9 \r\nFrame rate mode : Constant \r\nFrame rate : 23.976 (24000/1001) fps \r\nColor space : YUV \r\nChroma subsampling : 4:2:0 \r\nBit depth : 8 bits \r\nScan type : Progressive \r\nBits/(Pixel*Frame) : 0.043 \r\nStream size : 326 MiB (83%) \r\nDefault : Yes \r\nForced : No \r\n\r\nAudio \r\nID : 2 \r\nFormat : AAC \r\nFormat/Info : Advanced Audio Codec \r\nFormat profile : HE-AAC / LC \r\nCodec ID : A_AAC \r\nDuration : 48mn 5s \r\nBit rate : 192 Kbps \r\nChannel(s) : 6 channels \r\nChannel positions : Front: L C R, Side: L R, LFE \r\nSampling rate : 48.0 KHz / 24.0 KHz \r\nFrame rate : 23.438 fps (1024 spf) \r\nCompression mode : Lossy \r\nDelay relative to video : 31ms \r\nStream size : 65.6 MiB (17%) \r\nLanguage : English \r\nDefault : Yes \r\nForced : No","torrent":{"xt":"urn:btih:6dcae5df5d96b8a854ba6af3e0c1772d16cf25da","amp;dn":"Daredevil+S02+Season+2+720p+5.1Ch+WebRip+ReEnc-DeeJayAhmed","amp;tr":["udp%3A%2F%2Ftracker.leechers-paradise.org%3A6969","udp%3A%2F%2Fzer0day.ch%3A1337","udp%3A%2F%2Fopen.demonii.com%3A1337","udp%3A%2F%2Ftracker.coppersurfer.tk%3A6969","udp%3A%2F%2Fexodus.desync.com%3A6969"],"infoHash":"6dcae5df5d96b8a854ba6af3e0c1772d16cf25da","infoHashBuffer":{"type":"Buffer","data":[109,202,229,223,93,150,184,168,84,186,106,243,224,193,119,45,22,207,37,218]},"announce":[],"urlList":[]}}